# xmcd CD database file
#
# Track frame offsets:
#	150
#	15160
#	26913
#	43757
#	63770
#	83415
#
# Disc length: 1317 seconds
#
# Revision: 0
# Processed by: cddbd v1.5.2PL0 Copyright (c) Steve Scherf et al.
# Submitted via: CDex 1.70beta2
#
DISCID=38052306
DTITLE=Sherman and Greg - Instant Feedback
DYEAR=2004
DGENRE=Country
TTITLE0=Jackie Loiuse
TTITLE1=Find your strength
TTITLE2=Better late she arrived
TTITLE3=Nothing here to hold you down
TTITLE4=We'll meet again
TTITLE5=She's the one
EXTD=YEAR: 2004
EXTT0=
EXTT1=
EXTT2=
EXTT3=
EXTT4=
EXTT5=
PLAYORDER=
